<?xml version="1.0" encoding="UTF-8" standalone="no"?><!DOCTYPE svg PUBLIC "-//W3C//DTD SVG 1.1//EN" "http://www.w3.org/Graphics/SVG/1.1/DTD/svg11.dtd"><svg width="100%" height="100%" viewBox="0 0 328 328" version="1.1" xmlns="http://www.w3.org/2000/svg" xmlns:xlink="http://www.w3.org/1999/xlink" xml:space="preserve" xmlns:serif="http://www.serif.com/" style="fill-rule:evenodd;clip-rule:evenodd;stroke-linejoin:round;stroke-miterlimit:2;"><g><path d="M327.68,16.384c0,-9.043 -7.341,-16.384 -16.384,-16.384l-294.912,0c-9.043,0 -16.384,7.341 -16.384,16.384l0,294.912c0,9.043 7.341,16.384 16.384,16.384l294.912,-0c9.043,-0 16.384,-7.341 16.384,-16.384l0,-294.912Z" style="fill:url(#_Linear1);"/><path d="M149.744,0l-133.36,0c-9.043,0 -16.384,7.341 -16.384,16.384l0,133.36l22.677,-0l0,-110.683c0,-9.042 7.342,-16.384 16.384,-16.384l110.683,0l-0,-22.677Z" style="fill:#e7e8e9;"/><path d="M284.439,299.532l-0,-11.059c-0,-2.585 2.098,-4.684 4.683,-4.684l11.399,0c0.096,-0.002 0.193,-0.003 0.289,-0.003l18.187,0l0,-22.677l-40.864,0c-9.042,0 -16.384,7.342 -16.384,16.384l0,41.504l22.677,0l0,-18.827c0,-0.213 0.005,-0.425 0.013,-0.638Z" style="fill:#e7e8e9;"/><path d="M13.946,316.505l150.91,-0c1.682,-0 3.048,-1.366 3.048,-3.048l-0,-6.095c-0,-1.682 -1.366,-3.048 -3.048,-3.048l-141.767,-0l0,-141.767c0,-1.682 -1.366,-3.048 -3.048,-3.048l-6.095,0c-1.682,0 -3.048,1.366 -3.048,3.048l0,150.91c0,0.838 0.339,1.598 0.888,2.149l0.01,0.011c0.552,0.549 1.311,0.888 2.15,0.888Z" style="fill:#e7e8e9;"/><path d="M226.365,26.999l74.809,-0l-0,74.808c-0,1.683 1.365,3.048 3.047,3.048l6.096,0c1.682,0 3.048,-1.365 3.048,-3.048l-0,-74.521c-0,-6.887 -5.592,-12.478 -12.479,-12.478l-74.521,-0c-1.682,-0 -3.048,1.365 -3.048,3.048l0,6.095c0,1.682 1.366,3.048 3.048,3.048Z" style="fill:#e7e8e9;"/><path d="M279.011,100.665c0,-9.834 -7.984,-17.818 -17.818,-17.818l-186.578,-0c-9.835,-0 -17.819,7.984 -17.819,17.818l0,126.35c0,9.834 7.984,17.818 17.819,17.818l186.578,0c9.834,0 17.818,-7.984 17.818,-17.818l0,-126.35Z" style="fill:#e7e8e9;"/><path d="M71.467,219.909l52.16,-81.262l30.541,47.582l21.618,-17.319l33.527,26.86l16.645,-26.86l31.603,50.999l-186.094,-0Z" style="fill:#5ebc97;"/><circle cx="199.989" cy="121.309" r="12.217" style="fill:#5ebc97;"/><path d="M58.219,41.897l8.352,8.352l11.383,-11.382l-0,35.022l-35.023,0l11.383,-11.382l-9.137,-9.137l-0.014,-0.014l-6.976,-6.976c-3.397,-3.397 -3.397,-8.912 -0,-12.309c3.396,-3.397 8.912,-3.397 12.309,-0l6.976,6.976c0.271,0.271 0.52,0.555 0.747,0.85Z" style="fill:#e7e8e9;"/><path d="M305.633,313.753l-4.857,-4.882l-6.619,6.654l-0,-20.474l20.366,-0l-6.619,6.654l5.313,5.341l0.008,0.008l4.057,4.079c1.975,1.985 1.975,5.21 -0,7.196c-1.975,1.986 -5.183,1.986 -7.158,-0l-4.057,-4.079c-0.157,-0.158 -0.302,-0.324 -0.434,-0.497Z" style="fill:#e7e8e9;"/></g><defs><linearGradient id="_Linear1" x1="0" y1="0" x2="1" y2="0" gradientUnits="userSpaceOnUse" gradientTransform="matrix(277.438,275.222,-275.222,277.438,23.8279,29.9234)"><stop offset="0" style="stop-color:#0df2ac;stop-opacity:1"/><stop offset="1" style="stop-color:#009989;stop-opacity:1"/></linearGradient></defs></svg>